# xmcd
#
# Track frame offsets: 
#        150
#        24225
#        44570
#        45855
#        71757
#        89379
#        110205
#        125647
#        147892
#        161990
#        180847
#        198552
#        223452
#        228545
#        246792
#        253672
#        277627
#
# Disc length: 4007 seconds
#
# Revision: 7
# Processed by: cddbd v1.5.2PL0 Copyright (c) Steve Scherf et al.
# Submitted via: ExactAudioCopyFreeDBPlugin 1.0
#
DISCID=fb0fa511
DTITLE=MJG - No More Glory
DYEAR=1997
DGENRE=Rap
TTITLE0=Keep Your Mind
TTITLE1=Hip Hop Voodoo
TTITLE2=10th Grade (Skit)
TTITLE3=Good Damm Man
TTITLE4=Shine And Recline Feat. 8Ball
TTITLE5=That Girl Feat. Rodney Ellis
TTITLE6=Slippin'
TTITLE7=Take No Shit Feat. The FEDZ and Bun-B
TTITLE8=Pimpin Ain't Easy
TTITLE9=Black Mac Is Back Feat. 8Ball
TTITLE10=No More Glory
TTITLE11=What Is This?
TTITLE12=Questions (Skit)
TTITLE13=Don't Hold Back
TTITLE14=Reflections
TTITLE15=Hard But Fair
TTITLE16=Middle Of The Night Feat. 8Ball
EXTD=www.RapMusicGuide.com
EXTT0=
EXTT1=
EXTT2=
EXTT3=
EXTT4=
EXTT5=
EXTT6=
EXTT7=
EXTT8=
EXTT9=
EXTT10=
EXTT11=
EXTT12=
EXTT13=
EXTT14=
EXTT15=
EXTT16=
PLAYORDER=
